<svg id="visual" viewBox="0 0 900 600" width="900" height="600" xmlns="http://www.w3.org/2000/svg" xmlns:xlink="http://www.w3.org/1999/xlink" version="1.1"><path d="M0 163L13.7 172C27.3 181 54.7 199 82 207C109.3 215 136.7 213 163.8 222C191 231 218 251 245.2 241C272.3 231 299.7 191 327 171C354.3 151 381.7 151 409 157C436.3 163 463.7 175 491 180C518.3 185 545.7 183 573 173C600.3 163 627.7 145 654.8 146C682 147 709 167 736.2 172C763.3 177 790.7 167 818 170C845.3 173 872.7 189 886.3 197L900 205L900 0L886.3 0C872.7 0 845.3 0 818 0C790.7 0 763.3 0 736.2 0C709 0 682 0 654.8 0C627.7 0 600.3 0 573 0C545.7 0 518.3 0 491 0C463.7 0 436.3 0 409 0C381.7 0 354.3 0 327 0C299.7 0 272.3 0 245.2 0C218 0 191 0 163.8 0C136.7 0 109.3 0 82 0C54.7 0 27.3 0 13.7 0L0 0Z" fill="#6198ff"></path><path d="M0 289L13.7 298C27.3 307 54.7 325 82 330C109.3 335 136.7 327 163.8 330C191 333 218 347 245.2 326C272.3 305 299.7 249 327 232C354.3 215 381.7 237 409 248C436.3 259 463.7 259 491 259C518.3 259 545.7 259 573 257C600.3 255 627.7 251 654.8 246C682 241 709 235 736.2 236C763.3 237 790.7 245 818 251C845.3 257 872.7 261 886.3 263L900 265L900 203L886.3 195C872.7 187 845.3 171 818 168C790.7 165 763.3 175 736.2 170C709 165 682 145 654.8 144C627.7 143 600.3 161 573 171C545.7 181 518.3 183 491 178C463.7 173 436.3 161 409 155C381.7 149 354.3 149 327 169C299.7 189 272.3 229 245.2 239C218 249 191 229 163.8 220C136.7 211 109.3 213 82 205C54.7 197 27.3 179 13.7 170L0 161Z" fill="#3c80ff"></path><path d="M0 421L13.7 420C27.3 419 54.7 417 82 415C109.3 413 136.7 411 163.8 411C191 411 218 413 245.2 400C272.3 387 299.7 359 327 355C354.3 351 381.7 371 409 378C436.3 385 463.7 379 491 382C518.3 385 545.7 397 573 398C600.3 399 627.7 389 654.8 371C682 353 709 327 736.2 315C763.3 303 790.7 305 818 321C845.3 337 872.7 367 886.3 382L900 397L900 263L886.3 261C872.7 259 845.3 255 818 249C790.7 243 763.3 235 736.2 234C709 233 682 239 654.8 244C627.7 249 600.3 253 573 255C545.7 257 518.3 257 491 257C463.7 257 436.3 257 409 246C381.7 235 354.3 213 327 230C299.7 247 272.3 303 245.2 324C218 345 191 331 163.8 328C136.7 325 109.3 333 82 328C54.7 323 27.3 305 13.7 296L0 287Z" fill="#0066ff"></path><path d="M0 463L13.7 461C27.3 459 54.7 455 82 463C109.3 471 136.7 491 163.8 497C191 503 218 495 245.2 481C272.3 467 299.7 447 327 447C354.3 447 381.7 467 409 466C436.3 465 463.7 443 491 445C518.3 447 545.7 473 573 476C600.3 479 627.7 459 654.8 438C682 417 709 395 736.2 384C763.3 373 790.7 373 818 393C845.3 413 872.7 453 886.3 473L900 493L900 395L886.3 380C872.7 365 845.3 335 818 319C790.7 303 763.3 301 736.2 313C709 325 682 351 654.8 369C627.7 387 600.3 397 573 396C545.7 395 518.3 383 491 380C463.7 377 436.3 383 409 376C381.7 369 354.3 349 327 353C299.7 357 272.3 385 245.2 398C218 411 191 409 163.8 409C136.7 409 109.3 411 82 413C54.7 415 27.3 417 13.7 418L0 419Z" fill="#0059dd"></path><path d="M0 601L13.7 601C27.3 601 54.7 601 82 601C109.3 601 136.7 601 163.8 601C191 601 218 601 245.2 601C272.3 601 299.7 601 327 601C354.3 601 381.7 601 409 601C436.3 601 463.7 601 491 601C518.3 601 545.7 601 573 601C600.3 601 627.7 601 654.8 601C682 601 709 601 736.2 601C763.3 601 790.7 601 818 601C845.3 601 872.7 601 886.3 601L900 601L900 491L886.3 471C872.7 451 845.3 411 818 391C790.7 371 763.3 371 736.2 382C709 393 682 415 654.8 436C627.7 457 600.3 477 573 474C545.7 471 518.3 445 491 443C463.7 441 436.3 463 409 464C381.7 465 354.3 445 327 445C299.7 445 272.3 465 245.2 479C218 493 191 501 163.8 495C136.7 489 109.3 469 82 461C54.7 453 27.3 457 13.7 459L0 461Z" fill="#004cbb"></path></svg>