<svg id="visual" viewBox="0 0 900 600" width="900" height="600" xmlns="http://www.w3.org/2000/svg" xmlns:xlink="http://www.w3.org/1999/xlink" version="1.1"><rect x="0" y="0" width="900" height="600" fill="#001220"></rect><defs><linearGradient id="grad1_0" x1="33.3%" y1="0%" x2="100%" y2="100%"><stop offset="20%" stop-color="#001220" stop-opacity="1"></stop><stop offset="80%" stop-color="#001220" stop-opacity="1"></stop></linearGradient></defs><defs><linearGradient id="grad2_0" x1="0%" y1="0%" x2="66.7%" y2="100%"><stop offset="20%" stop-color="#001220" stop-opacity="1"></stop><stop offset="80%" stop-color="#001220" stop-opacity="1"></stop></linearGradient></defs><g transform="translate(900, 0)"><path d="M0 324.5C-14.1 288.2 -28.3 252 -50.1 252.1C-72 252.2 -101.6 288.6 -119.8 289.2C-138 289.7 -144.8 254.3 -157.8 236.1C-170.7 218 -189.8 217.1 -212.1 212.1C-234.5 207.2 -260 198.1 -269.8 180.3C-279.6 162.5 -273.6 136 -278.1 115.2C-282.6 94.4 -297.5 79.3 -307 61.1C-316.5 42.8 -320.5 21.4 -324.5 0L0 0Z" fill="#FBAE3C"></path></g><g transform="translate(0, 600)"><path d="M0 -324.5C26.9 -333.7 53.7 -342.8 61.6 -309.9C69.5 -277.1 58.5 -202.2 83.4 -201.4C108.4 -200.7 169.4 -274 180.3 -269.8C191.2 -265.6 152 -183.7 153.4 -153.4C154.9 -123.2 196.8 -144.5 208.7 -139.4C220.6 -134.4 202.3 -103.1 206 -85.3C209.8 -67.6 235.5 -63.5 258.9 -51.5C282.3 -39.5 303.4 -19.8 324.5 0L0 0Z" fill="#FBAE3C"></path></g></svg>